<svg version="1.1" id="Layer_1" xmlns="http://www.w3.org/2000/svg" xmlns:xlink="http://www.w3.org/1999/xlink" x="0px" y="0px"
	 width="100%" viewBox="0 0 52 51" enable-background="new 0 0 52 51" xml:space="preserve">
<path fill="#9711F7" opacity="1.000000" stroke="none" 
	d="
M36.000000,52.000000 
	C31.310745,52.000000 26.621489,52.000000 21.300064,51.689240 
	C19.592358,50.941647 18.508022,50.525181 17.442646,50.064842 
	C6.508207,45.340103 0.150003,33.704762 2.393817,22.539921 
	C4.776972,10.681739 14.863667,2.144631 26.649343,2.010692 
	C38.553337,1.875408 48.918243,9.987247 51.374588,21.872950 
	C53.932846,34.251743 48.305767,43.039890 37.934841,49.759109 
	C37.057602,50.597267 36.528801,51.298634 36.000000,52.000000 
M21.625458,24.185076 
	C20.170427,27.832369 19.745476,31.888000 23.227034,34.068211 
	C25.712811,35.624847 29.398321,35.368587 32.571911,35.600113 
	C32.992088,35.630764 33.550896,33.761246 33.676651,33.509659 
	C30.615597,32.474480 27.910473,32.051071 25.891008,30.643757 
	C25.039419,30.050306 24.911383,26.471384 25.712526,25.836113 
	C27.728449,24.237574 30.460333,23.541935 33.771877,22.109426 
	C33.234985,21.664103 32.310104,20.263662 31.190205,20.084890 
	C27.598213,19.511484 24.231972,20.158344 21.625458,24.185076 
z"/>
<path fill="#302830" opacity="1.000000" stroke="none" 
	d="
M38.283283,49.622314 
	C48.305767,43.039890 53.932846,34.251743 51.374588,21.872950 
	C48.918243,9.987247 38.553337,1.875408 26.649343,2.010692 
	C14.863667,2.144631 4.776972,10.681739 2.393817,22.539921 
	C0.150003,33.704762 6.508207,45.340103 17.442646,50.064842 
	C18.508022,50.525181 19.592358,50.941647 20.833946,51.689240 
	C18.299986,52.000000 15.599973,52.000000 12.399557,51.646538 
	C8.266105,48.195385 4.633052,45.097691 1.000000,42.000000 
	C1.000000,31.979105 1.000000,21.958210 1.363492,11.493788 
	C5.151322,7.700174 8.575661,4.350087 12.000000,1.000000 
	C21.687561,1.000000 31.375122,1.000000 41.549713,1.347293 
	C45.691162,5.129725 49.345581,8.564863 53.000000,12.000000 
	C53.000000,21.020895 53.000000,30.041792 52.648624,39.555576 
	C51.012936,41.481720 48.997375,42.728508 48.575802,44.381756 
	C47.063545,50.312229 43.063446,50.548325 38.283283,49.622314 
z"/>
<path fill="#010101" opacity="1.000000" stroke="none" 
	d="
M37.934841,49.759109 
	C43.063446,50.548325 47.063545,50.312229 48.575802,44.381756 
	C48.997375,42.728508 51.012936,41.481720 52.648624,40.024231 
	C53.000000,43.938118 53.000000,47.876236 53.000000,52.000000 
	C47.647926,52.000000 42.294418,52.000000 36.470451,52.000000 
	C36.528801,51.298634 37.057602,50.597267 37.934841,49.759109 
z"/>
<path fill="#000000" opacity="1.000000" stroke="none" 
	d="
M11.517044,1.000000 
	C8.575661,4.350087 5.151322,7.700174 1.363492,11.025130 
	C1.000000,7.742425 1.000000,4.484849 1.000000,1.000000 
	C4.342758,1.000000 7.688423,1.000000 11.517044,1.000000 
z"/>
<path fill="#000000" opacity="1.000000" stroke="none" 
	d="
M53.000000,11.517044 
	C49.345581,8.564863 45.691162,5.129725 42.018372,1.347293 
	C45.587208,1.000000 49.174419,1.000000 53.000000,1.000000 
	C53.000000,4.342551 53.000000,7.688319 53.000000,11.517044 
z"/>
<path fill="#000000" opacity="1.000000" stroke="none" 
	d="
M1.000000,42.486565 
	C4.633052,45.097691 8.266105,48.195385 11.949578,51.646538 
	C8.417958,52.000000 4.835916,52.000000 1.000000,52.000000 
	C1.000000,48.993645 1.000000,45.983387 1.000000,42.486565 
z"/>
<path fill="#F9F0FF" opacity="1.000000" stroke="none" 
	d="
M21.823872,23.863701 
	C24.231972,20.158344 27.598213,19.511484 31.190205,20.084890 
	C32.310104,20.263662 33.234985,21.664103 33.771877,22.109426 
	C30.460333,23.541935 27.728449,24.237574 25.712526,25.836113 
	C24.911383,26.471384 25.039419,30.050306 25.891008,30.643757 
	C27.910473,32.051071 30.615597,32.474480 33.676651,33.509659 
	C33.550896,33.761246 32.992088,35.630764 32.571911,35.600113 
	C29.398321,35.368587 25.712811,35.624847 23.227034,34.068211 
	C19.745476,31.888000 20.170427,27.832369 21.823872,23.863701 
z"/>
</svg>